HIERARCHY
ROOT Hips
{
	OFFSET 0.00000 0.00000 0.00000
	CHANNELS 6 Xposition Yposition Zposition Zrotation Yrotation Xrotation 
	JOINT LHipJoint
	{
		OFFSET 0 0 0
		CHANNELS 3 Zrotation Yrotation Xrotation
		JOINT LeftUpLeg
		{
			OFFSET 1.54859 -1.61379 0.86856
			CHANNELS 3 Zrotation Yrotation Xrotation
			JOINT LeftLeg
			{
				OFFSET 2.25087 -6.18423 0.00000
				CHANNELS 3 Zrotation Yrotation Xrotation
				JOINT LeftFoot
				{
					OFFSET 2.40328 -6.60297 0.00000
					CHANNELS 3 Zrotation Yrotation Xrotation
					JOINT LeftToeBase
					{
						OFFSET 0.17435 -0.47901 2.02453
						CHANNELS 3 Zrotation Yrotation Xrotation
						End Site
						{
							OFFSET 0.00000 -0.00000 1.04844
						}
					}
				}
			}
		}
	}
	JOINT RHipJoint
	{
		OFFSET 0 0 0
		CHANNELS 3 Zrotation Yrotation Xrotation
		JOINT RightUpLeg
		{
			OFFSET -1.54669 -1.61379 0.86856
			CHANNELS 3 Zrotation Yrotation Xrotation
			JOINT RightLeg
			{
				OFFSET -2.28132 -6.26789 0.00000
				CHANNELS 3 Zrotation Yrotation Xrotation
				JOINT RightFoot
				{
					OFFSET -2.51636 -6.91365 0.00000
					CHANNELS 3 Zrotation Yrotation Xrotation
					JOINT RightToeBase
					{
						OFFSET -0.15124 -0.41552 2.21090
						CHANNELS 3 Zrotation Yrotation Xrotation
						End Site
						{
							OFFSET -0.00000 -0.00000 1.13399
						}
					}
				}
			}
		}
	}
	JOINT LowerBack
	{
		OFFSET 0 0 0
		CHANNELS 3 Zrotation Yrotation Xrotation
		JOINT Spine
		{
			OFFSET -0.04287 2.26161 -0.25690
			CHANNELS 3 Zrotation Yrotation Xrotation
			JOINT Spine1
			{
				OFFSET 0.02248 2.28395 -0.10140
				CHANNELS 3 Zrotation Yrotation Xrotation
				JOINT Neck
				{
					OFFSET 0 0 0
					CHANNELS 3 Zrotation Yrotation Xrotation
					JOINT Neck1
					{
						OFFSET -0.11644 1.38496 0.11345
						CHANNELS 3 Zrotation Yrotation Xrotation
						JOINT Head
						{
							OFFSET 0.29383 1.36600 0.06642
							CHANNELS 3 Zrotation Yrotation Xrotation
							End Site
							{
								OFFSET 0.11075 1.41395 -0.00294
							}
						}
					}
				}
				JOINT LeftShoulder
				{
					OFFSET 0 0 0
					CHANNELS 3 Zrotation Yrotation Xrotation
					JOINT LeftArm
					{
						OFFSET 3.51628 0.59542 -0.30346
						CHANNELS 3 Zrotation Yrotation Xrotation
						JOINT LeftForeArm
						{
							OFFSET 4.76405 -0.00000 0.00000
							CHANNELS 3 Zrotation Yrotation Xrotation
							JOINT LeftHand
							{
								OFFSET 3.13759 -0.00000 -0.00000
								CHANNELS 3 Zrotation Yrotation Xrotation
								JOINT LeftFingerBase
								{
									OFFSET 0 0 0
									CHANNELS 3 Zrotation Yrotation Xrotation
									JOINT LeftHandIndex1
									{
										OFFSET 0.73226 -0.00000 -0.00000
										CHANNELS 3 Zrotation Yrotation Xrotation
										End Site
										{
											OFFSET 0.59037 -0.00000 -0.00000
										}
									}
								}
								JOINT LThumb
								{
									OFFSET 0 0 0
									CHANNELS 3 Zrotation Yrotation Xrotation
									End Site
									{
										OFFSET 0.59938 -0.00000 0.59938
									}
								}
							}
						}
					}
				}
				JOINT RightShoulder
				{
					OFFSET 0 0 0
					CHANNELS 3 Zrotation Yrotation Xrotation
					JOINT RightArm
					{
						OFFSET -3.30990 0.84213 -0.36430
						CHANNELS 3 Zrotation Yrotation Xrotation
						JOINT RightForeArm
						{
							OFFSET -5.10161 -0.00000 -0.00000
							CHANNELS 3 Zrotation Yrotation Xrotation
							JOINT RightHand
							{
								OFFSET -3.23267 -0.00000 -0.00000
								CHANNELS 3 Zrotation Yrotation Xrotation
								JOINT RightFingerBase
								{
									OFFSET 0 0 0
									CHANNELS 3 Zrotation Yrotation Xrotation
									JOINT RightHandIndex1
									{
										OFFSET -0.70200 -0.00000 -0.00000
										CHANNELS 3 Zrotation Yrotation Xrotation
										End Site
										{
											OFFSET -0.56597 -0.00000 -0.00000
										}
									}
								}
								JOINT RThumb
								{
									OFFSET 0 0 0
									CHANNELS 3 Zrotation Yrotation Xrotation
									End Site
									{
										OFFSET -0.57461 -0.00000 0.57461
									}
								}
							}
						}
					}
				}
			}
		}
	}
}
MOTION
Frames: 6
Frame Time: 0.0392157
0.00 0.00 0.00 0 0 0 0 0 0 -21 0 0 0 0 0 0 0 0 0 0 0 0 0 0 21 0 0 0 0 0 0 0 0 0 0 0 0 0 0 0 0 0 0 0 0 0 0 -16 0 0 21 0 0 11 0 0 0 -8 0 0 0 0 0 0 0 0 0 0 0 0 0 0 0 0 0 0 0 0 8 0 0 0 0 0 0 0 0 0 0 0 0 0 0 0 0 0
0.00 0.00 0.00 -162.4330 75.1243 -151.6090 0.0000 0.0000 0.0000 -2.5372 10.6841 -48.8318 15.9636 19.6048 78.1232 1.4786 -3.3516 -22.1436 0.0014 -0.2457 -0.6751 0.0000 0.0000 0.0000 9.2054 -4.6557 -9.9675 -3.4303 -11.3611 33.5074 -2.7364 -0.6153 -31.5667 -4.6652 12.9965 -39.3555 3.7111 0.8746 25.7235 4.7852 3.4570 10.9065 2.1272 2.1908 -2.2874 -8.7685 -1.8588 -11.1614 10.7939 0.5379 -17.2247 4.8146 0.9516 -3.3060 0.0000 0.0000 0.0000 -87.3757 19.6044 44.1147 16.7632 -26.5445 -3.9809 -0.0000 0.0000 -23.8353 27.5717 29.9471 14.6097 -7.1250 0.0000 -0.0000 -4.3882 62.9489 -1.9144 0.0000 0.0000 0.0000 78.4237 35.3689 52.6154 -83.1614 59.8225 -54.0812 0.0000 0.0000 29.4373 -37.8245 33.8208 -23.3702 7.1250 -0.0000 -0.0000 -2.8193 10.2807 -3.2808
0.00 0.00 0.00 -154.9260 73.2312 -142.5700 0.0000 0.0000 0.0000 5.1017 13.1801 -58.1842 14.9291 19.3720 75.0229 1.3966 -0.7080 -22.1339 0.0557 -1.5233 -4.1900 0.0000 0.0000 0.0000 10.4340 -4.1341 -0.7057 -1.6601 -8.1190 23.0760 -1.9534 -5.5623 -28.8701 -5.5978 14.0269 -43.3455 3.3359 4.6423 24.3273 4.2557 8.1042 11.7872 0.7372 4.5338 -0.6502 -10.5541 -5.2588 -9.0413 14.9242 -3.5613 -18.8661 6.4520 -1.1536 -3.5070 -0.0000 -0.0000 0.0000 -77.3454 30.8746 51.0360 20.3151 -31.0201 -5.6929 -0.0000 0.0000 -29.3974 29.9822 34.1978 17.9662 -7.1250 0.0000 -0.0000 -3.9332 68.0568 -2.1798 -0.0000 -0.0000 0.0000 78.4278 48.3326 29.7953 -22.3331 33.3515 -6.7681 0.0000 0.0000 41.0335 -38.3683 35.1873 -24.5231 7.1250 -0.0000 -0.0000 -2.7344 11.9434 -3.2443
0.00 0.00 0.00 -158.2860 71.9071 -145.0770 0.0000 0.0000 0.0000 5.2873 13.8591 -61.3312 14.4998 19.2587 73.7251 1.1197 -2.0979 -19.4125 0.3941 -4.0309 -11.1637 0.0000 0.0000 0.0000 9.5042 -5.1227 4.6937 -0.9330 -6.1529 17.2286 -0.9924 -9.4746 -24.4917 -6.5145 14.9091 -47.0134 2.4597 6.4410 23.5088 3.5508 10.1462 11.7058 0.0845 5.5218 -0.3401 -12.4540 -7.6474 -8.1367 17.9978 -6.6485 -18.5881 7.6893 -2.7428 -2.9009 -0.0000 -0.0000 0.0000 -71.1811 33.0462 54.3809 23.0309 -34.1226 -7.1556 -0.0000 0.0000 -32.8489 28.0986 32.1554 15.8631 -7.1250 0.0000 -0.0000 -5.0310 65.3890 -2.4817 -0.0000 -0.0000 0.0000 74.5758 52.6714 -0.7403 -10.6310 17.7205 -1.6619 0.0000 0.0000 46.9050 -28.6568 25.8832 -13.4182 7.1250 -0.0000 -0.0000 0.6866 -1.0414 0.6740
0.00 0.00 0.00 -170.8320 67.8432 -154.7880 0.0000 0.0000 0.0000 0.4271 12.6871 -65.9451 14.9386 19.3744 75.0518 0.5393 -4.6548 -13.0695 1.8614 -8.5711 -24.4627 0.0000 0.0000 0.0000 6.7463 -4.6710 13.2883 -0.3943 -4.0318 11.1660 0.3054 -14.8966 -17.4648 -6.9278 15.2708 -48.6006 0.1757 7.9988 20.7743 1.6020 11.6564 11.9057 -0.6192 6.2543 1.2273 -14.2510 -10.9004 -4.7617 23.5260 -10.4346 -22.1289 9.9223 -4.8830 -3.2938 -0.0000 0.0000 0.0000 -65.0997 31.8658 53.9027 29.8714 -40.7829 -11.3255 -0.0000 0.0000 -30.8009 32.9243 35.1636 20.4516 -7.1250 0.0000 -0.0000 -0.3666 69.9851 -0.2190 -0.0000 0.0000 0.0000 65.5298 48.2072 -49.4331 -8.4159 14.2247 -1.0520 0.0000 0.0000 19.1708 -23.3081 27.5018 -11.2521 7.1250 -0.0000 -0.0000 4.1067 -0.4991 4.0813
0.00 0.00 0.00 -175.8510 58.7935 -154.2340 0.0000 0.0000 0.0000 -4.2159 10.5532 -66.0967 14.7402 19.3233 74.4527 0.9720 -9.1715 -17.7851 4.4217 -12.7013 -38.2606 0.0000 0.0000 0.0000 10.3968 -3.8897 10.0175 -1.6671 -8.1352 23.1255 1.1549 -19.4311 -13.3875 -2.7603 10.2964 -29.9421 -0.6638 5.6231 15.6435 -0.1093 8.2570 10.3590 -0.8259 4.4799 2.2560 -12.8988 -11.7699 -3.3214 27.4173 -11.1168 -22.8507 11.0962 -5.5980 -3.3080 0.0000 -0.0000 0.0000 -73.1086 28.3727 33.0907 31.7950 -42.3831 -12.6024 -0.0000 0.0000 -31.3667 37.4922 32.2714 22.2732 -7.1250 0.0000 -0.0000 8.1728 68.3318 4.5893 0.0000 -0.0000 0.0000 72.8454 31.4371 -23.9089 -20.8676 31.6735 -5.9803 0.0000 -0.0000 -24.4603 -29.7414 30.0835 -15.9815 7.1250 -0.0000 -0.0000 0.7832 3.7279 0.8325
